<mxfile host="app.diagrams.net" modified="2022-06-11T19:31:44.641Z" agent="5.0 (Windows NT 10.0; Win64; x64) AppleWebKit/537.36 (KHTML, like Gecko) Chrome/102.0.0.0 Safari/537.36" etag="rH1rG11bRWrD7H6QFmu-" version="19.0.1" type="github">
  <diagram id="YBkWq5HG3aW7KjurHIij" name="Page-1">
    <mxGraphModel dx="1468" dy="856" grid="1" gridSize="10" guides="1" tooltips="1" connect="1" arrows="1" fold="1" page="0" pageScale="1" pageWidth="827" pageHeight="1169" math="0" shadow="0">
      <root>
        <mxCell id="0" />
        <mxCell id="1" parent="0" />
        <mxCell id="tiuEcBF6v56B7dEMuvXk-40" value="" style="rounded=0;whiteSpace=wrap;html=1;hachureGap=4;fontSize=9;" vertex="1" parent="1">
          <mxGeometry x="-240" y="-260" width="717.5" height="540" as="geometry" />
        </mxCell>
        <mxCell id="tiuEcBF6v56B7dEMuvXk-38" value="" style="rounded=0;whiteSpace=wrap;html=1;hachureGap=4;fillColor=#fff2cc;strokeColor=#d6b656;" vertex="1" parent="1">
          <mxGeometry x="-40" y="80" width="490" height="180" as="geometry" />
        </mxCell>
        <mxCell id="tiuEcBF6v56B7dEMuvXk-36" value="" style="rounded=0;whiteSpace=wrap;html=1;hachureGap=4;fillColor=#fff2cc;strokeColor=#d6b656;" vertex="1" parent="1">
          <mxGeometry x="-40" y="-110" width="490" height="180" as="geometry" />
        </mxCell>
        <mxCell id="tiuEcBF6v56B7dEMuvXk-19" value="" style="rounded=0;whiteSpace=wrap;html=1;hachureGap=4;fillColor=#fff2cc;strokeColor=#d6b656;" vertex="1" parent="1">
          <mxGeometry x="-40" y="-240" width="490" height="110" as="geometry" />
        </mxCell>
        <mxCell id="tiuEcBF6v56B7dEMuvXk-1" value="假设有三个任务&lt;br&gt;任务A：等待 5 s，执行 10 s&lt;br&gt;任务B：等待 2 s，执行 8 s&lt;br&gt;任务C：执行 10 s" style="text;html=1;strokeColor=none;fillColor=none;align=left;verticalAlign=middle;whiteSpace=wrap;rounded=0;hachureGap=4;" vertex="1" parent="1">
          <mxGeometry x="-210" y="-240" width="190" height="70" as="geometry" />
        </mxCell>
        <mxCell id="tiuEcBF6v56B7dEMuvXk-2" value="" style="endArrow=classic;html=1;rounded=0;startSize=14;endSize=14;sourcePerimeterSpacing=8;targetPerimeterSpacing=8;curved=1;" edge="1" parent="1">
          <mxGeometry width="50" height="50" relative="1" as="geometry">
            <mxPoint x="-20" y="-169" as="sourcePoint" />
            <mxPoint x="430" y="-169" as="targetPoint" />
          </mxGeometry>
        </mxCell>
        <mxCell id="tiuEcBF6v56B7dEMuvXk-9" value="时间" style="edgeLabel;html=1;align=center;verticalAlign=middle;resizable=0;points=[];" vertex="1" connectable="0" parent="tiuEcBF6v56B7dEMuvXk-2">
          <mxGeometry x="0.7221" y="-2" relative="1" as="geometry">
            <mxPoint as="offset" />
          </mxGeometry>
        </mxCell>
        <mxCell id="tiuEcBF6v56B7dEMuvXk-3" value="A[10]" style="rounded=0;whiteSpace=wrap;html=1;hachureGap=4;fillColor=#cce5ff;strokeColor=#36393d;" vertex="1" parent="1">
          <mxGeometry x="30" y="-199" width="100" height="20" as="geometry" />
        </mxCell>
        <mxCell id="tiuEcBF6v56B7dEMuvXk-4" value="B[8]" style="rounded=0;whiteSpace=wrap;html=1;hachureGap=4;fillColor=#cce5ff;strokeColor=#36393d;" vertex="1" parent="1">
          <mxGeometry x="150" y="-199" width="80" height="20" as="geometry" />
        </mxCell>
        <mxCell id="tiuEcBF6v56B7dEMuvXk-6" value="C[10]" style="rounded=0;whiteSpace=wrap;html=1;hachureGap=4;fillColor=#cce5ff;strokeColor=#36393d;" vertex="1" parent="1">
          <mxGeometry x="230" y="-199" width="100" height="20" as="geometry" />
        </mxCell>
        <mxCell id="tiuEcBF6v56B7dEMuvXk-7" value="A[5]" style="rounded=0;whiteSpace=wrap;html=1;hachureGap=4;fillColor=#ffcccc;strokeColor=#36393d;" vertex="1" parent="1">
          <mxGeometry x="-20" y="-199" width="50" height="20" as="geometry" />
        </mxCell>
        <mxCell id="tiuEcBF6v56B7dEMuvXk-8" value="B[2]" style="rounded=0;whiteSpace=wrap;html=1;hachureGap=4;fillColor=#ffcccc;strokeColor=#36393d;" vertex="1" parent="1">
          <mxGeometry x="130" y="-199" width="20" height="20" as="geometry" />
        </mxCell>
        <mxCell id="tiuEcBF6v56B7dEMuvXk-10" value="" style="endArrow=classic;html=1;rounded=0;startSize=14;endSize=14;sourcePerimeterSpacing=8;targetPerimeterSpacing=8;curved=1;" edge="1" parent="1">
          <mxGeometry width="50" height="50" relative="1" as="geometry">
            <mxPoint x="-20" y="20" as="sourcePoint" />
            <mxPoint x="430" y="20" as="targetPoint" />
          </mxGeometry>
        </mxCell>
        <mxCell id="tiuEcBF6v56B7dEMuvXk-11" value="时间" style="edgeLabel;html=1;align=center;verticalAlign=middle;resizable=0;points=[];" vertex="1" connectable="0" parent="tiuEcBF6v56B7dEMuvXk-10">
          <mxGeometry x="0.7221" y="-2" relative="1" as="geometry">
            <mxPoint as="offset" />
          </mxGeometry>
        </mxCell>
        <mxCell id="tiuEcBF6v56B7dEMuvXk-12" value="A[10]" style="rounded=0;whiteSpace=wrap;html=1;hachureGap=4;fillColor=#cce5ff;strokeColor=#36393d;" vertex="1" parent="1">
          <mxGeometry x="30" y="-70" width="100" height="20" as="geometry" />
        </mxCell>
        <mxCell id="tiuEcBF6v56B7dEMuvXk-13" value="B[3]" style="rounded=0;whiteSpace=wrap;html=1;hachureGap=4;fillColor=#cce5ff;strokeColor=#36393d;" vertex="1" parent="1">
          <mxGeometry y="-40" width="30" height="20" as="geometry" />
        </mxCell>
        <mxCell id="tiuEcBF6v56B7dEMuvXk-14" value="C[2]" style="rounded=0;whiteSpace=wrap;html=1;hachureGap=4;fillColor=#cce5ff;strokeColor=#36393d;" vertex="1" parent="1">
          <mxGeometry x="-20" y="-10" width="20" height="20" as="geometry" />
        </mxCell>
        <mxCell id="tiuEcBF6v56B7dEMuvXk-15" value="A[5]" style="rounded=0;whiteSpace=wrap;html=1;hachureGap=4;fillColor=#ffcccc;strokeColor=#36393d;" vertex="1" parent="1">
          <mxGeometry x="-20" y="-70" width="50" height="20" as="geometry" />
        </mxCell>
        <mxCell id="tiuEcBF6v56B7dEMuvXk-16" value="B[2]" style="rounded=0;whiteSpace=wrap;html=1;hachureGap=4;fillColor=#ffcccc;strokeColor=#36393d;" vertex="1" parent="1">
          <mxGeometry x="-20" y="-40" width="20" height="20" as="geometry" />
        </mxCell>
        <mxCell id="tiuEcBF6v56B7dEMuvXk-17" value="C[8]" style="rounded=0;whiteSpace=wrap;html=1;hachureGap=4;fillColor=#cce5ff;strokeColor=#36393d;" vertex="1" parent="1">
          <mxGeometry x="130" y="-10" width="100" height="20" as="geometry" />
        </mxCell>
        <mxCell id="tiuEcBF6v56B7dEMuvXk-18" value="B[5]" style="rounded=0;whiteSpace=wrap;html=1;hachureGap=4;fillColor=#cce5ff;strokeColor=#36393d;" vertex="1" parent="1">
          <mxGeometry x="230" y="-40" width="50" height="20" as="geometry" />
        </mxCell>
        <mxCell id="tiuEcBF6v56B7dEMuvXk-20" value="共耗时：5+10+2+8+10=35s" style="text;html=1;strokeColor=none;fillColor=none;align=left;verticalAlign=middle;whiteSpace=wrap;rounded=0;hachureGap=4;" vertex="1" parent="1">
          <mxGeometry x="-30" y="-160" width="350" height="30" as="geometry" />
        </mxCell>
        <mxCell id="tiuEcBF6v56B7dEMuvXk-22" value="共耗时：2+3+10+8+5=28s" style="text;html=1;strokeColor=none;fillColor=none;align=left;verticalAlign=middle;whiteSpace=wrap;rounded=0;hachureGap=4;" vertex="1" parent="1">
          <mxGeometry x="-30" y="40" width="350" height="30" as="geometry" />
        </mxCell>
        <mxCell id="tiuEcBF6v56B7dEMuvXk-24" value="" style="endArrow=classic;html=1;rounded=0;startSize=14;endSize=14;sourcePerimeterSpacing=8;targetPerimeterSpacing=8;curved=1;" edge="1" parent="1">
          <mxGeometry width="50" height="50" relative="1" as="geometry">
            <mxPoint x="-20" y="214" as="sourcePoint" />
            <mxPoint x="430" y="214" as="targetPoint" />
          </mxGeometry>
        </mxCell>
        <mxCell id="tiuEcBF6v56B7dEMuvXk-25" value="时间" style="edgeLabel;html=1;align=center;verticalAlign=middle;resizable=0;points=[];" vertex="1" connectable="0" parent="tiuEcBF6v56B7dEMuvXk-24">
          <mxGeometry x="0.7221" y="-2" relative="1" as="geometry">
            <mxPoint as="offset" />
          </mxGeometry>
        </mxCell>
        <mxCell id="tiuEcBF6v56B7dEMuvXk-26" value="A[10]" style="rounded=0;whiteSpace=wrap;html=1;hachureGap=4;fillColor=#cce5ff;strokeColor=#36393d;" vertex="1" parent="1">
          <mxGeometry x="30" y="124" width="100" height="20" as="geometry" />
        </mxCell>
        <mxCell id="tiuEcBF6v56B7dEMuvXk-27" value="B[8]" style="rounded=0;whiteSpace=wrap;html=1;hachureGap=4;fillColor=#cce5ff;strokeColor=#36393d;" vertex="1" parent="1">
          <mxGeometry y="154" width="80" height="20" as="geometry" />
        </mxCell>
        <mxCell id="tiuEcBF6v56B7dEMuvXk-28" value="C[10]" style="rounded=0;whiteSpace=wrap;html=1;hachureGap=4;fillColor=#cce5ff;strokeColor=#36393d;" vertex="1" parent="1">
          <mxGeometry x="-20" y="184" width="100" height="20" as="geometry" />
        </mxCell>
        <mxCell id="tiuEcBF6v56B7dEMuvXk-29" value="A[5]" style="rounded=0;whiteSpace=wrap;html=1;hachureGap=4;fillColor=#ffcccc;strokeColor=#36393d;" vertex="1" parent="1">
          <mxGeometry x="-20" y="124" width="50" height="20" as="geometry" />
        </mxCell>
        <mxCell id="tiuEcBF6v56B7dEMuvXk-30" value="B[2]" style="rounded=0;whiteSpace=wrap;html=1;hachureGap=4;fillColor=#ffcccc;strokeColor=#36393d;" vertex="1" parent="1">
          <mxGeometry x="-20" y="154" width="20" height="20" as="geometry" />
        </mxCell>
        <mxCell id="tiuEcBF6v56B7dEMuvXk-33" value="共耗时：5+10=15s" style="text;html=1;strokeColor=none;fillColor=none;align=left;verticalAlign=middle;whiteSpace=wrap;rounded=0;hachureGap=4;" vertex="1" parent="1">
          <mxGeometry x="-30" y="230" width="350" height="30" as="geometry" />
        </mxCell>
        <mxCell id="tiuEcBF6v56B7dEMuvXk-34" value="串行" style="text;html=1;strokeColor=none;fillColor=none;align=center;verticalAlign=middle;whiteSpace=wrap;rounded=0;hachureGap=4;fontSize=9;" vertex="1" parent="1">
          <mxGeometry x="-40" y="-240" width="60" height="30" as="geometry" />
        </mxCell>
        <mxCell id="tiuEcBF6v56B7dEMuvXk-37" value="并发" style="text;html=1;strokeColor=none;fillColor=none;align=center;verticalAlign=middle;whiteSpace=wrap;rounded=0;hachureGap=4;fontSize=9;" vertex="1" parent="1">
          <mxGeometry x="-40" y="-110" width="60" height="30" as="geometry" />
        </mxCell>
        <mxCell id="tiuEcBF6v56B7dEMuvXk-39" value="并行" style="text;html=1;strokeColor=none;fillColor=none;align=center;verticalAlign=middle;whiteSpace=wrap;rounded=0;hachureGap=4;fontSize=9;" vertex="1" parent="1">
          <mxGeometry x="-40" y="80" width="60" height="30" as="geometry" />
        </mxCell>
      </root>
    </mxGraphModel>
  </diagram>
</mxfile>
